<svg xmlns="http://www.w3.org/2000/svg" xmlns:xlink="http://www.w3.org/1999/xlink" width="2000" zoomAndPan="magnify" viewBox="0 0 1500 1499.999933" height="2000" preserveAspectRatio="xMidYMid meet" version="1.0"><rect x="-150" width="1800" fill="#ffffff" y="-149.999993" height="1799.99992" fill-opacity="1"/><rect x="-150" width="1800" fill="#545454" y="-149.999993" height="1799.99992" fill-opacity="1"/><path fill="#ebebeb" d="M 290.105469 1053.027344 L 190.667969 1053.027344 C 187.621094 1053.019531 184.574219 1052.9375 181.527344 1052.78125 C 178.484375 1052.625 175.445312 1052.390625 172.410156 1052.085938 C 169.375 1051.78125 166.351562 1051.402344 163.335938 1050.945312 C 160.320312 1050.492188 157.320312 1049.964844 154.332031 1049.363281 C 151.339844 1048.765625 148.367188 1048.089844 145.410156 1047.34375 C 142.457031 1046.597656 139.519531 1045.78125 136.601562 1044.890625 C 133.6875 1044 130.792969 1043.039062 127.925781 1042.007812 C 125.054688 1040.976562 122.210938 1039.875 119.398438 1038.703125 C 116.582031 1037.535156 113.796875 1036.296875 111.042969 1034.988281 C 108.289062 1033.679688 105.566406 1032.308594 102.878906 1030.867188 C 100.191406 1029.429688 97.539062 1027.921875 94.925781 1026.355469 C 92.3125 1024.785156 89.738281 1023.152344 87.203125 1021.457031 C 84.667969 1019.757812 82.179688 1018.003906 79.730469 1016.1875 C 77.28125 1014.367188 74.878906 1012.492188 72.523438 1010.558594 C 70.167969 1008.621094 67.859375 1006.628906 65.601562 1004.582031 C 63.34375 1002.535156 61.136719 1000.433594 58.980469 998.277344 C 56.824219 996.121094 54.722656 993.914062 52.671875 991.652344 C 50.625 989.394531 48.632812 987.085938 46.699219 984.730469 C 44.761719 982.375 42.886719 979.972656 41.070312 977.523438 C 39.25 975.074219 37.496094 972.585938 35.800781 970.050781 C 34.105469 967.515625 32.472656 964.941406 30.902344 962.328125 C 29.332031 959.714844 27.828125 957.0625 26.386719 954.375 C 24.945312 951.6875 23.574219 948.96875 22.265625 946.210938 C 20.960938 943.457031 19.722656 940.671875 18.550781 937.855469 C 17.378906 935.042969 16.277344 932.199219 15.246094 929.332031 C 14.214844 926.460938 13.253906 923.566406 12.363281 920.652344 C 11.476562 917.734375 10.65625 914.800781 9.910156 911.84375 C 9.164062 908.886719 8.492188 905.914062 7.890625 902.925781 C 7.289062 899.933594 6.761719 896.933594 6.308594 893.917969 C 5.855469 890.902344 5.472656 887.878906 5.167969 884.84375 C 4.863281 881.8125 4.632812 878.773438 4.472656 875.726562 C 4.316406 872.679688 4.234375 869.632812 4.226562 866.585938 L 4.226562 610.289062 C 4.234375 607.238281 4.316406 604.191406 4.472656 601.144531 C 4.632812 598.101562 4.863281 595.0625 5.167969 592.027344 C 5.472656 588.996094 5.855469 585.96875 6.308594 582.957031 C 6.761719 579.941406 7.289062 576.9375 7.890625 573.949219 C 8.492188 570.960938 9.164062 567.988281 9.910156 565.03125 C 10.65625 562.074219 11.476562 559.136719 12.363281 556.222656 C 13.253906 553.304688 14.214844 550.410156 15.246094 547.542969 C 16.277344 544.671875 17.378906 541.832031 18.550781 539.015625 C 19.722656 536.199219 20.960938 533.414062 22.265625 530.660156 C 23.574219 527.90625 24.945312 525.183594 26.386719 522.496094 C 27.828125 519.808594 29.332031 517.160156 30.902344 514.542969 C 32.472656 511.929688 34.105469 509.355469 35.800781 506.820312 C 37.496094 504.289062 39.25 501.796875 41.070312 499.347656 C 42.886719 496.902344 44.761719 494.5 46.699219 492.140625 C 48.632812 489.785156 50.625 487.476562 52.671875 485.21875 C 54.71875 482.960938 56.824219 480.753906 58.980469 478.597656 C 61.132812 476.441406 63.34375 474.339844 65.601562 472.289062 C 67.859375 470.242188 70.167969 468.25 72.523438 466.316406 C 74.878906 464.382812 77.28125 462.503906 79.730469 460.6875 C 82.179688 458.871094 84.667969 457.113281 87.203125 455.417969 C 89.738281 453.722656 92.3125 452.089844 94.925781 450.519531 C 97.539062 448.949219 100.191406 447.445312 102.878906 446.003906 C 105.566406 444.566406 108.289062 443.191406 111.042969 441.882812 C 113.796875 440.578125 116.582031 439.339844 119.398438 438.167969 C 122.210938 436.996094 125.054688 435.898438 127.925781 434.867188 C 130.792969 433.835938 133.6875 432.875 136.601562 431.984375 C 139.519531 431.09375 142.457031 430.273438 145.410156 429.527344 C 148.367188 428.78125 151.339844 428.109375 154.332031 427.507812 C 157.320312 426.90625 160.320312 426.378906 163.335938 425.925781 C 166.351562 425.472656 169.375 425.09375 172.410156 424.785156 C 175.445312 424.480469 178.484375 424.25 181.527344 424.09375 C 184.574219 423.933594 187.621094 423.851562 190.667969 423.84375 L 311.234375 423.84375 L 623.714844 111.363281 C 625.328125 109.734375 627.054688 108.226562 628.886719 106.851562 C 630.722656 105.476562 632.652344 104.242188 634.671875 103.148438 C 636.6875 102.058594 638.777344 101.121094 640.933594 100.339844 C 643.089844 99.558594 645.292969 98.9375 647.542969 98.484375 C 649.792969 98.027344 652.0625 97.738281 654.351562 97.621094 C 656.644531 97.5 658.933594 97.550781 661.214844 97.769531 C 663.5 97.988281 665.757812 98.375 667.984375 98.925781 C 670.210938 99.480469 672.382812 100.195312 674.503906 101.070312 C 676.625 101.945312 678.671875 102.96875 680.640625 104.148438 C 682.609375 105.324219 684.480469 106.640625 686.257812 108.097656 C 688.03125 109.550781 689.6875 111.128906 691.226562 112.832031 C 692.769531 114.53125 694.175781 116.335938 695.449219 118.246094 C 696.722656 120.152344 697.847656 122.144531 698.828125 124.222656 C 699.804688 126.296875 700.625 128.433594 701.289062 130.628906 C 701.949219 132.828125 702.445312 135.058594 702.777344 137.332031 C 703.109375 139.601562 703.269531 141.882812 703.265625 144.179688 L 703.265625 1356.0625 C 703.269531 1358.355469 703.109375 1360.640625 702.777344 1362.910156 C 702.445312 1365.179688 701.949219 1367.414062 701.289062 1369.609375 C 700.625 1371.808594 699.804688 1373.945312 698.828125 1376.019531 C 697.847656 1378.09375 696.722656 1380.085938 695.449219 1381.996094 C 694.175781 1383.90625 692.769531 1385.710938 691.226562 1387.410156 C 689.6875 1389.109375 688.03125 1390.6875 686.253906 1392.144531 C 684.480469 1393.597656 682.609375 1394.914062 680.640625 1396.09375 C 678.671875 1397.269531 676.625 1398.296875 674.503906 1399.171875 C 672.382812 1400.046875 670.210938 1400.761719 667.984375 1401.3125 C 665.753906 1401.867188 663.5 1402.253906 661.214844 1402.472656 C 658.933594 1402.691406 656.644531 1402.742188 654.351562 1402.621094 C 652.0625 1402.5 649.792969 1402.214844 647.542969 1401.757812 C 645.292969 1401.300781 643.089844 1400.683594 640.933594 1399.902344 C 638.777344 1399.117188 636.6875 1398.183594 634.671875 1397.089844 C 632.652344 1396 630.722656 1394.765625 628.886719 1393.386719 C 627.054688 1392.011719 625.328125 1390.507812 623.714844 1388.875 L 297.5625 1062.722656 C 294.644531 1059.824219 292.15625 1056.59375 290.105469 1053.027344 Z M 1122.886719 1395.089844 C 1120.914062 1396.109375 1118.898438 1397.035156 1116.839844 1397.863281 C 1114.78125 1398.691406 1112.6875 1399.421875 1110.558594 1400.046875 C 1108.429688 1400.675781 1106.273438 1401.203125 1104.097656 1401.625 C 1101.917969 1402.050781 1099.722656 1402.367188 1097.511719 1402.582031 C 1095.304688 1402.796875 1093.089844 1402.902344 1090.871094 1402.90625 C 1088.648438 1402.910156 1086.433594 1402.808594 1084.226562 1402.597656 C 1082.015625 1402.390625 1079.820312 1402.078125 1077.640625 1401.660156 C 1075.460938 1401.242188 1073.304688 1400.722656 1071.175781 1400.097656 C 1069.042969 1399.476562 1066.949219 1398.753906 1064.886719 1397.929688 C 1062.824219 1397.105469 1060.804688 1396.1875 1058.832031 1395.171875 C 1056.859375 1394.15625 1054.9375 1393.050781 1053.070312 1391.851562 C 1051.199219 1390.652344 1049.394531 1389.371094 1047.648438 1388 C 1045.902344 1386.628906 1044.222656 1385.179688 1042.617188 1383.648438 C 1041.007812 1382.117188 1039.476562 1380.511719 1038.023438 1378.835938 C 1036.566406 1377.160156 1035.195312 1375.417969 1033.90625 1373.609375 C 1032.617188 1371.804688 1031.417969 1369.9375 1030.304688 1368.015625 C 1029.195312 1366.097656 1028.179688 1364.125 1027.253906 1362.105469 C 1026.332031 1360.089844 1025.507812 1358.03125 1024.78125 1355.933594 C 1024.050781 1353.835938 1023.425781 1351.710938 1022.902344 1349.550781 C 1022.378906 1347.394531 1021.957031 1345.21875 1021.640625 1343.019531 C 1021.324219 1340.824219 1021.113281 1338.617188 1021.007812 1336.398438 C 1020.898438 1334.183594 1020.898438 1331.964844 1021.003906 1329.746094 C 1021.109375 1327.53125 1021.320312 1325.324219 1021.636719 1323.125 C 1021.949219 1320.929688 1022.371094 1318.75 1022.890625 1316.59375 C 1023.414062 1314.4375 1024.039062 1312.308594 1024.765625 1310.210938 C 1025.492188 1308.113281 1026.316406 1306.054688 1027.238281 1304.035156 C 1028.160156 1302.015625 1029.175781 1300.046875 1030.285156 1298.125 C 1031.394531 1296.203125 1032.59375 1294.335938 1033.882812 1292.527344 C 1035.167969 1290.71875 1036.539062 1288.976562 1037.996094 1287.300781 C 1039.449219 1285.621094 1040.980469 1284.019531 1042.585938 1282.488281 C 1044.191406 1280.957031 1045.867188 1279.503906 1047.613281 1278.132812 C 1049.359375 1276.761719 1051.164062 1275.476562 1053.03125 1274.273438 C 1064.5625 1267.65625 1075.863281 1260.667969 1086.9375 1253.3125 C 1098.011719 1245.953125 1108.832031 1238.246094 1119.40625 1230.183594 C 1129.976562 1222.121094 1140.273438 1213.722656 1150.292969 1204.984375 C 1160.316406 1196.25 1170.042969 1187.199219 1179.476562 1177.832031 C 1188.910156 1168.460938 1198.027344 1158.792969 1206.828125 1148.832031 C 1215.628906 1138.867188 1224.097656 1128.625 1232.230469 1118.109375 C 1240.363281 1107.59375 1248.144531 1096.824219 1255.574219 1085.796875 C 1263.003906 1074.773438 1270.070312 1063.519531 1276.765625 1052.035156 C 1280.042969 1046.308594 1283.230469 1040.527344 1286.320312 1034.699219 C 1289.414062 1028.867188 1292.410156 1022.988281 1295.308594 1017.0625 C 1298.210938 1011.132812 1301.015625 1005.160156 1303.71875 999.140625 C 1306.425781 993.121094 1309.035156 987.058594 1311.542969 980.957031 C 1314.054688 974.851562 1316.464844 968.710938 1318.773438 962.527344 C 1321.082031 956.34375 1323.289062 950.128906 1325.398438 943.875 C 1327.507812 937.621094 1329.511719 931.332031 1331.414062 925.015625 C 1333.316406 918.695312 1335.117188 912.347656 1336.816406 905.96875 C 1338.511719 899.589844 1340.105469 893.1875 1341.59375 886.757812 C 1343.082031 880.328125 1344.464844 873.878906 1345.746094 867.402344 C 1347.023438 860.929688 1348.195312 854.433594 1349.265625 847.921875 C 1350.332031 841.410156 1351.292969 834.882812 1352.148438 828.339844 C 1353.003906 821.792969 1353.753906 815.238281 1354.398438 808.671875 C 1355.039062 802.101562 1355.574219 795.523438 1356.003906 788.941406 C 1356.433594 782.355469 1356.753906 775.761719 1356.96875 769.167969 C 1357.183594 762.570312 1357.289062 755.972656 1357.289062 749.375 C 1357.289062 742.773438 1357.183594 736.175781 1356.96875 729.582031 C 1356.753906 722.984375 1356.433594 716.394531 1356.003906 709.808594 C 1355.574219 703.222656 1355.039062 696.648438 1354.398438 690.078125 C 1353.753906 683.511719 1353.003906 676.953125 1352.148438 670.410156 C 1351.292969 663.867188 1350.332031 657.339844 1349.265625 650.828125 C 1348.195312 644.3125 1347.023438 637.820312 1345.746094 631.347656 C 1344.464844 624.871094 1343.082031 618.417969 1341.59375 611.992188 C 1340.105469 605.5625 1338.511719 599.15625 1336.816406 592.78125 C 1335.117188 586.402344 1333.316406 580.054688 1331.414062 573.734375 C 1329.511719 567.414062 1327.507812 561.128906 1325.398438 554.875 C 1323.289062 548.621094 1321.082031 542.402344 1318.773438 536.222656 C 1316.464844 530.039062 1314.054688 523.894531 1311.542969 517.792969 C 1309.035156 511.6875 1306.425781 505.628906 1303.71875 499.609375 C 1301.015625 493.589844 1298.210938 487.617188 1295.308594 481.6875 C 1292.410156 475.761719 1289.414062 469.882812 1286.320312 464.050781 C 1283.230469 458.21875 1280.042969 452.441406 1276.765625 446.714844 C 1270.070312 435.230469 1263.003906 423.972656 1255.574219 412.949219 C 1248.144531 401.925781 1240.363281 391.15625 1232.230469 380.640625 C 1224.097656 370.121094 1215.628906 359.882812 1206.828125 349.917969 C 1198.027344 339.953125 1188.910156 330.289062 1179.476562 320.917969 C 1170.042969 311.550781 1160.316406 302.496094 1150.292969 293.761719 C 1140.273438 285.027344 1129.976562 276.628906 1119.40625 268.566406 C 1108.835938 260.503906 1098.011719 252.792969 1086.9375 245.4375 C 1075.863281 238.082031 1064.5625 231.09375 1053.03125 224.472656 C 1051.164062 223.273438 1049.359375 221.988281 1047.613281 220.617188 C 1045.867188 219.246094 1044.191406 217.792969 1042.585938 216.261719 C 1040.980469 214.730469 1039.449219 213.125 1037.996094 211.449219 C 1036.539062 209.773438 1035.167969 208.027344 1033.882812 206.222656 C 1032.59375 204.414062 1031.394531 202.546875 1030.285156 200.625 C 1029.175781 198.703125 1028.160156 196.730469 1027.238281 194.710938 C 1026.316406 192.695312 1025.492188 190.636719 1024.765625 188.539062 C 1024.039062 186.441406 1023.414062 184.3125 1022.890625 182.15625 C 1022.371094 179.996094 1021.949219 177.820312 1021.636719 175.625 C 1021.320312 173.425781 1021.109375 171.21875 1021.003906 169 C 1020.898438 166.785156 1020.898438 164.566406 1021.007812 162.351562 C 1021.113281 160.132812 1021.324219 157.925781 1021.640625 155.726562 C 1021.957031 153.53125 1022.378906 151.355469 1022.902344 149.199219 C 1023.425781 147.039062 1024.050781 144.914062 1024.78125 142.816406 C 1025.507812 140.71875 1026.332031 138.660156 1027.253906 136.640625 C 1028.179688 134.625 1029.195312 132.652344 1030.304688 130.730469 C 1031.417969 128.808594 1032.617188 126.945312 1033.90625 125.136719 C 1035.195312 123.332031 1036.566406 121.589844 1038.023438 119.914062 C 1039.476562 118.234375 1041.007812 116.632812 1042.617188 115.101562 C 1044.222656 113.570312 1045.902344 112.121094 1047.648438 110.75 C 1049.394531 109.378906 1051.199219 108.09375 1053.070312 106.898438 C 1054.9375 105.699219 1056.859375 104.589844 1058.832031 103.578125 C 1060.804688 102.5625 1062.824219 101.640625 1064.886719 100.820312 C 1066.949219 99.996094 1069.042969 99.273438 1071.175781 98.648438 C 1073.304688 98.027344 1075.460938 97.507812 1077.640625 97.089844 C 1079.820312 96.671875 1082.015625 96.359375 1084.226562 96.152344 C 1086.433594 95.941406 1088.648438 95.839844 1090.871094 95.84375 C 1093.089844 95.84375 1095.304688 95.953125 1097.511719 96.167969 C 1099.722656 96.382812 1101.917969 96.699219 1104.097656 97.125 C 1106.273438 97.546875 1108.429688 98.074219 1110.558594 98.699219 C 1112.6875 99.328125 1114.78125 100.058594 1116.839844 100.886719 C 1118.898438 101.714844 1120.914062 102.636719 1122.886719 103.660156 C 1129.945312 107.722656 1136.9375 111.902344 1143.859375 116.195312 C 1150.785156 120.488281 1157.632812 124.890625 1164.414062 129.410156 C 1171.191406 133.925781 1177.894531 138.554688 1184.519531 143.289062 C 1191.148438 148.027344 1197.695312 152.871094 1204.164062 157.824219 C 1210.632812 162.777344 1217.015625 167.832031 1223.320312 172.992188 C 1229.621094 178.152344 1235.835938 183.414062 1241.96875 188.78125 C 1248.097656 194.144531 1254.136719 199.609375 1260.089844 205.171875 C 1266.039062 210.734375 1271.898438 216.390625 1277.664062 222.144531 C 1283.429688 227.902344 1289.097656 233.75 1294.671875 239.6875 C 1300.246094 245.628906 1305.722656 251.660156 1311.097656 257.777344 C 1316.472656 263.898438 1321.75 270.105469 1326.921875 276.394531 C 1332.09375 282.6875 1337.164062 289.0625 1342.128906 295.523438 C 1347.089844 301.980469 1351.949219 308.519531 1356.699219 315.136719 C 1361.449219 321.753906 1366.089844 328.449219 1370.617188 335.21875 C 1375.148438 341.988281 1379.566406 348.832031 1383.875 355.746094 C 1388.179688 362.660156 1392.371094 369.640625 1396.449219 376.695312 C 1400.527344 383.746094 1404.488281 390.863281 1408.332031 398.042969 C 1412.175781 405.226562 1415.902344 412.46875 1419.507812 419.773438 C 1423.117188 427.078125 1426.601562 434.4375 1429.96875 441.855469 C 1433.332031 449.273438 1436.578125 456.746094 1439.695312 464.269531 C 1442.816406 471.792969 1445.816406 479.367188 1448.6875 486.988281 C 1451.558594 494.613281 1454.308594 502.277344 1456.929688 509.992188 C 1459.550781 517.703125 1462.042969 525.457031 1464.414062 533.25 C 1466.78125 541.046875 1469.019531 548.875 1471.128906 556.746094 C 1473.242188 564.613281 1475.222656 572.511719 1477.074219 580.445312 C 1478.925781 588.375 1480.648438 596.335938 1482.238281 604.328125 C 1483.828125 612.316406 1485.289062 620.328125 1486.617188 628.363281 C 1487.945312 636.402344 1489.144531 644.457031 1490.207031 652.535156 C 1491.273438 660.609375 1492.203125 668.703125 1493.003906 676.808594 C 1493.804688 684.914062 1494.46875 693.03125 1495.003906 701.160156 C 1495.535156 709.289062 1495.9375 717.421875 1496.203125 725.566406 C 1496.46875 733.707031 1496.605469 741.851562 1496.605469 749.996094 C 1496.605469 758.140625 1496.46875 766.285156 1496.203125 774.425781 C 1495.9375 782.570312 1495.535156 790.703125 1495.003906 798.832031 C 1494.46875 806.960938 1493.804688 815.078125 1493.003906 823.183594 C 1492.203125 831.289062 1491.273438 839.382812 1490.207031 847.457031 C 1489.144531 855.535156 1487.945312 863.589844 1486.617188 871.625 C 1485.289062 879.664062 1483.828125 887.675781 1482.238281 895.664062 C 1480.648438 903.652344 1478.925781 911.613281 1477.074219 919.546875 C 1475.222656 927.480469 1473.242188 935.378906 1471.128906 943.246094 C 1469.019531 951.113281 1466.78125 958.945312 1464.414062 966.742188 C 1462.046875 974.535156 1459.550781 982.289062 1456.929688 990 C 1454.308594 997.714844 1451.5625 1005.378906 1448.6875 1013.003906 C 1445.816406 1020.625 1442.816406 1028.199219 1439.699219 1035.722656 C 1436.578125 1043.246094 1433.332031 1050.71875 1429.96875 1058.136719 C 1426.601562 1065.554688 1423.117188 1072.914062 1419.507812 1080.21875 C 1415.902344 1087.523438 1412.175781 1094.765625 1408.332031 1101.945312 C 1404.488281 1109.128906 1400.527344 1116.246094 1396.449219 1123.296875 C 1392.371094 1130.347656 1388.179688 1137.332031 1383.875 1144.246094 C 1379.566406 1151.160156 1375.148438 1158.003906 1370.617188 1164.773438 C 1366.089844 1171.542969 1361.449219 1178.238281 1356.699219 1184.855469 C 1351.949219 1191.472656 1347.089844 1198.011719 1342.128906 1204.46875 C 1337.164062 1210.925781 1332.09375 1217.304688 1326.921875 1223.59375 C 1321.75 1229.886719 1316.472656 1236.09375 1311.097656 1242.214844 C 1305.722656 1248.332031 1300.246094 1254.363281 1294.671875 1260.304688 C 1289.097656 1266.242188 1283.429688 1272.089844 1277.664062 1277.84375 C 1271.898438 1283.601562 1266.039062 1289.257812 1260.089844 1294.820312 C 1254.136719 1300.382812 1248.097656 1305.847656 1241.96875 1311.210938 C 1235.835938 1316.574219 1229.621094 1321.839844 1223.320312 1327 C 1217.015625 1332.160156 1210.632812 1337.214844 1204.164062 1342.167969 C 1197.695312 1347.121094 1191.148438 1351.964844 1184.519531 1356.699219 C 1177.894531 1361.4375 1171.191406 1366.066406 1164.414062 1370.582031 C 1157.632812 1375.101562 1150.785156 1379.503906 1143.859375 1383.796875 C 1136.9375 1388.089844 1129.945312 1392.269531 1122.886719 1396.332031 Z M 1006.296875 1193.234375 C 1015.996094 1187.605469 1025.496094 1181.671875 1034.808594 1175.425781 C 1044.121094 1169.179688 1053.21875 1162.636719 1062.101562 1155.796875 C 1070.988281 1148.960938 1079.640625 1141.839844 1088.0625 1134.441406 C 1096.484375 1127.039062 1104.65625 1119.371094 1112.578125 1111.4375 C 1120.5 1103.503906 1128.15625 1095.324219 1135.546875 1086.890625 C 1142.9375 1078.460938 1150.042969 1069.796875 1156.871094 1060.90625 C 1163.695312 1052.011719 1170.226562 1042.902344 1176.460938 1033.585938 C 1182.695312 1024.265625 1188.617188 1014.753906 1194.234375 1005.050781 C 1197.015625 1000.21875 1199.71875 995.339844 1202.34375 990.417969 C 1204.96875 985.496094 1207.511719 980.535156 1209.972656 975.527344 C 1212.433594 970.523438 1214.8125 965.480469 1217.109375 960.398438 C 1219.410156 955.316406 1221.621094 950.199219 1223.75 945.042969 C 1225.882812 939.890625 1227.925781 934.699219 1229.886719 929.480469 C 1231.847656 924.257812 1233.722656 919.007812 1235.511719 913.722656 C 1237.300781 908.441406 1239.003906 903.128906 1240.621094 897.792969 C 1242.234375 892.453125 1243.761719 887.089844 1245.203125 881.703125 C 1246.644531 876.3125 1247.996094 870.902344 1249.261719 865.472656 C 1250.523438 860.039062 1251.699219 854.589844 1252.785156 849.117188 C 1253.871094 843.648438 1254.867188 838.160156 1255.773438 832.65625 C 1256.679688 827.152344 1257.496094 821.636719 1258.222656 816.105469 C 1258.949219 810.578125 1259.585938 805.035156 1260.132812 799.484375 C 1260.675781 793.933594 1261.132812 788.378906 1261.496094 782.8125 C 1261.859375 777.246094 1262.132812 771.675781 1262.3125 766.101562 C 1262.496094 760.527344 1262.585938 754.953125 1262.585938 749.375 C 1262.585938 743.796875 1262.496094 738.222656 1262.3125 732.648438 C 1262.132812 727.074219 1261.859375 721.503906 1261.496094 715.9375 C 1261.132812 710.371094 1260.675781 704.8125 1260.132812 699.261719 C 1259.585938 693.710938 1258.949219 688.171875 1258.222656 682.640625 C 1257.496094 677.113281 1256.679688 671.597656 1255.773438 666.09375 C 1254.867188 660.589844 1253.871094 655.101562 1252.785156 649.632812 C 1251.699219 644.160156 1250.523438 638.710938 1249.261719 633.277344 C 1247.996094 627.84375 1246.644531 622.433594 1245.203125 617.046875 C 1243.761719 611.660156 1242.234375 606.296875 1240.621094 600.957031 C 1239.003906 595.617188 1237.300781 590.308594 1235.511719 585.027344 C 1233.722656 579.742188 1231.847656 574.492188 1229.886719 569.269531 C 1227.925781 564.046875 1225.882812 558.859375 1223.75 553.707031 C 1221.621094 548.550781 1219.410156 543.433594 1217.109375 538.351562 C 1214.8125 533.269531 1212.433594 528.222656 1209.972656 523.21875 C 1207.511719 518.214844 1204.96875 513.253906 1202.34375 508.332031 C 1199.71875 503.410156 1197.015625 498.53125 1194.234375 493.699219 C 1188.617188 483.992188 1182.695312 474.480469 1176.460938 465.164062 C 1170.226562 455.84375 1163.695312 446.738281 1156.871094 437.84375 C 1150.042969 428.949219 1142.9375 420.289062 1135.546875 411.855469 C 1128.15625 403.425781 1120.5 395.242188 1112.578125 387.308594 C 1104.65625 379.378906 1096.484375 371.710938 1088.0625 364.308594 C 1079.640625 356.90625 1070.988281 349.789062 1062.101562 342.949219 C 1053.21875 336.113281 1044.121094 329.570312 1034.808594 323.324219 C 1025.496094 317.078125 1015.996094 311.140625 1006.296875 305.515625 C 1005.304688 304.941406 1004.300781 304.394531 1003.277344 303.875 C 1002.261719 303.351562 1001.226562 302.855469 1000.183594 302.382812 C 999.140625 301.910156 998.085938 301.464844 997.019531 301.046875 C 995.953125 300.625 994.878906 300.234375 993.792969 299.867188 C 992.707031 299.5 991.613281 299.160156 990.511719 298.84375 C 989.410156 298.53125 988.300781 298.246094 987.1875 297.988281 C 986.070312 297.730469 984.949219 297.496094 983.820312 297.292969 C 982.695312 297.089844 981.5625 296.914062 980.425781 296.765625 C 979.289062 296.617188 978.152344 296.496094 977.011719 296.40625 C 975.867188 296.3125 974.726562 296.25 973.582031 296.210938 C 972.433594 296.175781 971.289062 296.167969 970.144531 296.1875 C 969 296.207031 967.855469 296.257812 966.710938 296.332031 C 965.570312 296.410156 964.429688 296.511719 963.292969 296.644531 C 962.152344 296.777344 961.019531 296.9375 959.890625 297.125 C 958.757812 297.3125 957.632812 297.527344 956.515625 297.773438 C 955.394531 298.015625 954.28125 298.285156 953.175781 298.582031 C 952.070312 298.878906 950.972656 299.207031 949.882812 299.558594 C 948.792969 299.910156 947.710938 300.289062 946.640625 300.691406 C 945.566406 301.097656 944.507812 301.527344 943.457031 301.984375 C 942.40625 302.441406 941.367188 302.921875 940.339844 303.429688 C 939.3125 303.9375 938.300781 304.472656 937.300781 305.027344 C 936.300781 305.585938 935.3125 306.167969 934.339844 306.773438 C 933.367188 307.378906 932.414062 308.011719 931.472656 308.664062 C 930.53125 309.316406 929.605469 309.992188 928.699219 310.691406 C 927.789062 311.390625 926.898438 312.109375 926.027344 312.851562 C 925.152344 313.59375 924.300781 314.355469 923.464844 315.140625 C 922.628906 315.925781 921.8125 316.726562 921.019531 317.550781 C 920.222656 318.375 919.449219 319.21875 918.695312 320.082031 C 917.9375 320.945312 917.207031 321.824219 916.496094 322.722656 C 915.785156 323.621094 915.09375 324.535156 914.429688 325.464844 C 913.761719 326.398438 913.121094 327.347656 912.5 328.308594 C 911.882812 329.273438 911.285156 330.25 910.714844 331.242188 C 910.140625 332.238281 909.59375 333.242188 909.074219 334.261719 C 908.550781 335.28125 908.054688 336.3125 907.582031 337.355469 C 907.109375 338.402344 906.664062 339.457031 906.246094 340.523438 C 905.824219 341.585938 905.433594 342.664062 905.066406 343.75 C 904.699219 344.832031 904.359375 345.925781 904.046875 347.027344 C 903.730469 348.128906 903.445312 349.238281 903.1875 350.355469 C 902.929688 351.472656 902.695312 352.59375 902.492188 353.71875 C 902.289062 354.847656 902.113281 355.980469 901.964844 357.113281 C 901.816406 358.25 901.695312 359.390625 901.605469 360.53125 C 901.511719 361.671875 901.449219 362.816406 901.410156 363.960938 C 901.375 365.105469 901.367188 366.25 901.386719 367.398438 C 901.40625 368.542969 901.457031 369.6875 901.53125 370.828125 C 901.609375 371.972656 901.710938 373.113281 901.84375 374.25 C 901.976562 375.386719 902.136719 376.523438 902.324219 377.652344 C 902.511719 378.78125 902.726562 379.90625 902.972656 381.027344 C 903.214844 382.144531 903.484375 383.257812 903.78125 384.363281 C 904.082031 385.46875 904.40625 386.570312 904.757812 387.660156 C 905.109375 388.75 905.488281 389.828125 905.890625 390.902344 C 906.296875 391.972656 906.726562 393.035156 907.183594 394.085938 C 907.640625 395.136719 908.121094 396.171875 908.628906 397.199219 C 909.136719 398.226562 909.671875 399.242188 910.230469 400.242188 C 910.785156 401.242188 911.367188 402.226562 911.972656 403.199219 C 912.582031 404.171875 913.210938 405.128906 913.863281 406.070312 C 914.515625 407.011719 915.191406 407.9375 915.890625 408.84375 C 916.589844 409.753906 917.308594 410.640625 918.050781 411.515625 C 918.792969 412.386719 919.554688 413.242188 920.339844 414.078125 C 921.125 414.910156 921.925781 415.726562 922.75 416.523438 C 923.574219 417.320312 924.417969 418.09375 925.28125 418.847656 C 926.144531 419.601562 927.023438 420.335938 927.921875 421.046875 C 928.820312 421.757812 929.734375 422.445312 930.667969 423.113281 C 931.597656 423.777344 932.546875 424.421875 933.507812 425.039062 C 934.472656 425.660156 935.449219 426.253906 936.445312 426.828125 C 950.597656 435.011719 964.160156 444.082031 977.128906 454.039062 C 990.097656 464 1002.363281 474.757812 1013.925781 486.320312 C 1025.484375 497.882812 1036.246094 510.148438 1046.203125 523.117188 C 1056.160156 536.085938 1065.234375 549.644531 1073.417969 563.800781 C 1076.464844 569.089844 1079.382812 574.449219 1082.167969 579.882812 C 1084.953125 585.3125 1087.605469 590.808594 1090.121094 596.371094 C 1092.636719 601.933594 1095.011719 607.554688 1097.25 613.234375 C 1099.492188 618.910156 1101.589844 624.640625 1103.546875 630.425781 C 1105.503906 636.207031 1107.320312 642.03125 1108.992188 647.902344 C 1110.664062 653.773438 1112.191406 659.683594 1113.574219 665.628906 C 1114.953125 671.574219 1116.1875 677.550781 1117.277344 683.558594 C 1118.363281 689.5625 1119.304688 695.59375 1120.097656 701.644531 C 1120.890625 707.699219 1121.53125 713.765625 1122.027344 719.851562 C 1122.519531 725.9375 1122.863281 732.027344 1123.058594 738.128906 C 1123.253906 744.230469 1123.296875 750.332031 1123.195312 756.4375 C 1123.089844 762.539062 1122.835938 768.636719 1122.429688 774.726562 C 1122.027344 780.820312 1121.472656 786.894531 1120.769531 792.960938 C 1120.066406 799.023438 1119.214844 805.066406 1118.214844 811.089844 C 1117.214844 817.109375 1116.070312 823.105469 1114.773438 829.070312 C 1113.480469 835.035156 1112.042969 840.964844 1110.457031 846.859375 C 1108.871094 852.753906 1107.140625 858.605469 1105.269531 864.417969 C 1103.398438 870.226562 1101.382812 875.988281 1099.226562 881.699219 C 1097.070312 887.410156 1094.777344 893.066406 1092.34375 898.664062 C 1089.910156 904.261719 1087.34375 909.796875 1084.636719 915.269531 C 1081.933594 920.742188 1079.09375 926.144531 1076.125 931.476562 C 1073.152344 936.808594 1070.054688 942.066406 1066.824219 947.246094 C 1063.597656 952.425781 1060.242188 957.527344 1056.761719 962.542969 C 1053.285156 967.558594 1049.683594 972.484375 1045.964844 977.324219 C 1042.242188 982.164062 1038.40625 986.90625 1034.453125 991.558594 C 1030.496094 996.210938 1026.433594 1000.761719 1022.253906 1005.210938 C 1018.078125 1009.664062 1013.792969 1014.007812 1009.402344 1018.25 C 1005.011719 1022.488281 1000.519531 1026.621094 995.925781 1030.640625 C 991.332031 1034.660156 986.640625 1038.5625 981.855469 1042.355469 C 977.070312 1046.144531 972.195312 1049.8125 967.230469 1053.363281 C 962.261719 1056.914062 957.214844 1060.339844 952.078125 1063.640625 C 946.945312 1066.945312 941.734375 1070.117188 936.445312 1073.164062 C 934.574219 1074.363281 932.769531 1075.648438 931.023438 1077.023438 C 929.277344 1078.394531 927.601562 1079.84375 925.996094 1081.375 C 924.390625 1082.90625 922.859375 1084.511719 921.40625 1086.191406 C 919.949219 1087.867188 918.582031 1089.609375 917.292969 1091.417969 C 916.003906 1093.226562 914.804688 1095.089844 913.695312 1097.011719 C 912.585938 1098.9375 911.570312 1100.90625 910.648438 1102.925781 C 909.726562 1104.945312 908.902344 1107.003906 908.175781 1109.101562 C 907.449219 1111.199219 906.828125 1113.328125 906.304688 1115.484375 C 905.78125 1117.640625 905.363281 1119.816406 905.046875 1122.015625 C 904.730469 1124.210938 904.519531 1126.417969 904.414062 1128.636719 C 904.308594 1130.855469 904.3125 1133.070312 904.417969 1135.289062 C 904.523438 1137.507812 904.734375 1139.714844 905.050781 1141.910156 C 905.367188 1144.105469 905.789062 1146.285156 906.3125 1148.441406 C 906.839844 1150.597656 907.464844 1152.726562 908.191406 1154.824219 C 908.917969 1156.917969 909.742188 1158.976562 910.667969 1160.996094 C 911.589844 1163.015625 912.605469 1164.984375 913.71875 1166.90625 C 914.828125 1168.828125 916.027344 1170.691406 917.316406 1172.5 C 918.605469 1174.308594 919.976562 1176.050781 921.433594 1177.726562 C 922.886719 1179.402344 924.417969 1181.003906 926.027344 1182.535156 C 927.636719 1184.066406 929.3125 1185.515625 931.058594 1186.886719 C 932.804688 1188.257812 934.609375 1189.542969 936.480469 1190.742188 C 938.347656 1191.941406 940.269531 1193.046875 942.242188 1194.0625 C 944.21875 1195.078125 946.234375 1195.996094 948.296875 1196.820312 C 950.359375 1197.640625 952.453125 1198.363281 954.585938 1198.988281 C 956.714844 1199.609375 958.871094 1200.128906 961.050781 1200.546875 C 963.230469 1200.964844 965.425781 1201.277344 967.636719 1201.488281 C 969.84375 1201.695312 972.058594 1201.796875 974.28125 1201.796875 C 976.5 1201.792969 978.714844 1201.683594 980.925781 1201.46875 C 983.132812 1201.257812 985.328125 1200.9375 987.507812 1200.515625 C 989.6875 1200.089844 991.839844 1199.566406 993.96875 1198.9375 C 996.097656 1198.308594 998.191406 1197.582031 1000.25 1196.753906 C 1002.308594 1195.925781 1004.324219 1195 1006.296875 1193.980469 Z M 889.957031 991.378906 C 895.222656 988.316406 900.386719 985.085938 905.441406 981.6875 C 910.496094 978.289062 915.4375 974.730469 920.261719 971.011719 C 925.085938 967.289062 929.78125 963.414062 934.351562 959.386719 C 938.921875 955.359375 943.355469 951.1875 947.65625 946.871094 C 951.953125 942.554688 956.105469 938.101562 960.113281 933.511719 C 964.121094 928.925781 967.976562 924.210938 971.675781 919.371094 C 975.375 914.53125 978.914062 909.574219 982.289062 904.503906 C 985.664062 899.433594 988.871094 894.257812 991.910156 888.976562 C 994.949219 883.699219 997.8125 878.324219 1000.5 872.855469 C 1003.1875 867.390625 1005.691406 861.839844 1008.019531 856.210938 C 1010.34375 850.578125 1012.480469 844.878906 1014.433594 839.109375 C 1016.386719 833.339844 1018.152344 827.511719 1019.722656 821.625 C 1021.296875 815.738281 1022.675781 809.808594 1023.859375 803.832031 C 1025.042969 797.855469 1026.035156 791.847656 1026.828125 785.808594 C 1027.621094 779.769531 1028.214844 773.710938 1028.613281 767.628906 C 1029.007812 761.550781 1029.207031 755.464844 1029.207031 749.375 C 1029.207031 743.28125 1029.007812 737.195312 1028.613281 731.117188 C 1028.214844 725.039062 1027.621094 718.980469 1026.828125 712.9375 C 1026.035156 706.898438 1025.042969 700.890625 1023.859375 694.914062 C 1022.675781 688.941406 1021.296875 683.011719 1019.722656 677.125 C 1018.152344 671.238281 1016.386719 665.410156 1014.433594 659.640625 C 1012.480469 653.871094 1010.34375 648.167969 1008.019531 642.539062 C 1005.691406 636.90625 1003.1875 631.359375 1000.5 625.890625 C 997.8125 620.425781 994.949219 615.050781 991.910156 609.769531 C 988.871094 604.492188 985.664062 599.316406 982.289062 594.246094 C 978.914062 589.171875 975.375 584.21875 971.675781 579.378906 C 967.976562 574.539062 964.121094 569.824219 960.113281 565.238281 C 956.105469 560.648438 951.953125 556.195312 947.65625 551.878906 C 943.355469 547.5625 938.921875 543.390625 934.351562 539.363281 C 929.78125 535.335938 925.085938 531.460938 920.261719 527.738281 C 915.4375 524.019531 910.496094 520.457031 905.441406 517.058594 C 900.386719 513.660156 895.222656 510.433594 889.957031 507.371094 C 888.96875 506.714844 887.964844 506.085938 886.941406 505.480469 C 885.921875 504.875 884.886719 504.296875 883.835938 503.746094 C 882.785156 503.195312 881.722656 502.671875 880.648438 502.171875 C 879.570312 501.675781 878.480469 501.207031 877.378906 500.765625 C 876.28125 500.320312 875.167969 499.910156 874.046875 499.523438 C 872.925781 499.136719 871.792969 498.78125 870.65625 498.453125 C 869.515625 498.125 868.367188 497.828125 867.210938 497.558594 C 866.058594 497.289062 864.894531 497.046875 863.726562 496.839844 C 862.5625 496.628906 861.390625 496.449219 860.210938 496.296875 C 859.035156 496.144531 857.855469 496.027344 856.671875 495.933594 C 855.492188 495.84375 854.304688 495.785156 853.121094 495.753906 C 851.933594 495.726562 850.75 495.726562 849.5625 495.753906 C 848.378906 495.785156 847.195312 495.847656 846.011719 495.9375 C 844.828125 496.027344 843.648438 496.148438 842.472656 496.296875 C 841.296875 496.449219 840.125 496.628906 838.957031 496.839844 C 837.789062 497.050781 836.628906 497.289062 835.472656 497.558594 C 834.320312 497.828125 833.171875 498.128906 832.03125 498.457031 C 830.890625 498.785156 829.761719 499.140625 828.636719 499.527344 C 827.515625 499.914062 826.40625 500.328125 825.304688 500.769531 C 824.203125 501.210938 823.117188 501.679688 822.039062 502.179688 C 820.960938 502.675781 819.898438 503.203125 818.847656 503.753906 C 817.800781 504.304688 816.765625 504.882812 815.742188 505.488281 C 814.722656 506.09375 813.71875 506.722656 812.730469 507.378906 C 811.742188 508.035156 810.769531 508.714844 809.816406 509.417969 C 808.863281 510.125 807.929688 510.855469 807.011719 511.605469 C 806.09375 512.359375 805.199219 513.136719 804.320312 513.933594 C 803.445312 514.730469 802.589844 515.550781 801.753906 516.394531 C 800.917969 517.238281 800.105469 518.101562 799.3125 518.984375 C 798.523438 519.867188 797.753906 520.769531 797.007812 521.691406 C 796.261719 522.617188 795.542969 523.554688 794.84375 524.515625 C 794.148438 525.476562 793.472656 526.453125 792.828125 527.445312 C 792.179688 528.441406 791.558594 529.449219 790.960938 530.472656 C 790.363281 531.5 789.796875 532.539062 789.253906 533.59375 C 788.707031 534.648438 788.191406 535.714844 787.703125 536.796875 C 787.214844 537.878906 786.753906 538.96875 786.320312 540.074219 C 785.886719 541.179688 785.484375 542.292969 785.105469 543.417969 C 784.730469 544.542969 784.382812 545.675781 784.0625 546.816406 C 783.746094 547.960938 783.457031 549.109375 783.195312 550.269531 C 782.933594 551.425781 782.703125 552.589844 782.503906 553.757812 C 782.304688 554.925781 782.132812 556.097656 781.992188 557.277344 C 781.851562 558.453125 781.738281 559.636719 781.65625 560.820312 C 781.578125 562.003906 781.527344 563.1875 781.503906 564.371094 C 781.484375 565.558594 781.496094 566.746094 781.535156 567.929688 C 781.574219 569.113281 781.644531 570.296875 781.746094 571.480469 C 781.84375 572.664062 781.972656 573.839844 782.132812 575.015625 C 782.292969 576.191406 782.484375 577.363281 782.703125 578.527344 C 782.925781 579.691406 783.171875 580.851562 783.453125 582.003906 C 783.730469 583.160156 784.039062 584.304688 784.375 585.441406 C 784.714844 586.578125 785.078125 587.707031 785.472656 588.824219 C 785.867188 589.941406 786.289062 591.050781 786.742188 592.148438 C 787.191406 593.246094 787.671875 594.328125 788.175781 595.402344 C 788.683594 596.476562 789.21875 597.535156 789.777344 598.578125 C 790.335938 599.625 790.925781 600.65625 791.535156 601.671875 C 792.148438 602.6875 792.789062 603.6875 793.453125 604.667969 C 794.113281 605.652344 794.804688 606.617188 795.515625 607.566406 C 796.230469 608.515625 796.964844 609.441406 797.726562 610.355469 C 798.484375 611.265625 799.269531 612.15625 800.074219 613.023438 C 800.878906 613.894531 801.707031 614.746094 802.554688 615.574219 C 803.402344 616.402344 804.273438 617.207031 805.164062 617.992188 C 806.054688 618.777344 806.960938 619.539062 807.890625 620.277344 C 808.820312 621.015625 809.765625 621.726562 810.730469 622.417969 C 811.695312 623.109375 812.679688 623.773438 813.675781 624.410156 C 814.675781 625.050781 815.691406 625.664062 816.722656 626.253906 C 817.75 626.839844 818.796875 627.402344 819.855469 627.9375 C 825.164062 631.023438 830.253906 634.4375 835.121094 638.179688 C 839.988281 641.925781 844.59375 645.96875 848.9375 650.3125 C 853.28125 654.65625 857.324219 659.261719 861.070312 664.128906 C 864.8125 668.996094 868.226562 674.085938 871.3125 679.394531 C 872.832031 682.042969 874.261719 684.738281 875.605469 687.480469 C 876.945312 690.222656 878.199219 693.003906 879.359375 695.828125 C 880.523438 698.652344 881.59375 701.507812 882.566406 704.402344 C 883.542969 707.292969 884.425781 710.214844 885.210938 713.164062 C 885.996094 716.117188 886.683594 719.085938 887.277344 722.082031 C 887.867188 725.078125 888.363281 728.089844 888.757812 731.117188 C 889.15625 734.140625 889.453125 737.179688 889.652344 740.226562 C 889.847656 743.273438 889.949219 746.320312 889.949219 749.375 C 889.949219 752.425781 889.847656 755.476562 889.652344 758.523438 C 889.453125 761.570312 889.15625 764.605469 888.757812 767.632812 C 888.363281 770.660156 887.867188 773.671875 887.277344 776.664062 C 886.683594 779.660156 885.996094 782.632812 885.210938 785.582031 C 884.425781 788.53125 883.542969 791.453125 882.566406 794.347656 C 881.59375 797.238281 880.523438 800.097656 879.359375 802.921875 C 878.199219 805.742188 876.945312 808.527344 875.605469 811.269531 C 874.261719 814.007812 872.832031 816.703125 871.3125 819.351562 C 868.246094 824.660156 864.84375 829.742188 861.105469 834.601562 C 857.367188 839.457031 853.324219 844.046875 848.980469 848.371094 C 844.636719 852.695312 840.027344 856.714844 835.148438 860.429688 C 830.273438 864.144531 825.175781 867.523438 819.855469 870.5625 C 818.839844 871.125 817.84375 871.710938 816.859375 872.320312 C 815.875 872.929688 814.910156 873.566406 813.957031 874.222656 C 813.003906 874.882812 812.070312 875.566406 811.152344 876.269531 C 810.234375 876.976562 809.335938 877.703125 808.453125 878.453125 C 807.570312 879.203125 806.707031 879.976562 805.863281 880.769531 C 805.019531 881.5625 804.199219 882.375 803.394531 883.207031 C 802.589844 884.042969 801.808594 884.894531 801.050781 885.769531 C 800.289062 886.640625 799.550781 887.53125 798.832031 888.441406 C 798.117188 889.351562 797.425781 890.277344 796.753906 891.21875 C 796.082031 892.164062 795.4375 893.125 794.8125 894.101562 C 794.191406 895.078125 793.59375 896.066406 793.019531 897.074219 C 792.449219 898.078125 791.898438 899.097656 791.375 900.132812 C 790.855469 901.164062 790.359375 902.210938 789.886719 903.265625 C 789.417969 904.324219 788.972656 905.394531 788.554688 906.472656 C 788.136719 907.554688 787.746094 908.640625 787.382812 909.742188 C 787.019531 910.839844 786.683594 911.949219 786.375 913.0625 C 786.066406 914.179688 785.789062 915.300781 785.535156 916.433594 C 785.28125 917.5625 785.058594 918.699219 784.863281 919.839844 C 784.667969 920.980469 784.5 922.125 784.359375 923.273438 C 784.222656 924.421875 784.109375 925.574219 784.027344 926.730469 C 783.945312 927.882812 783.894531 929.039062 783.871094 930.199219 C 783.84375 931.355469 783.847656 932.511719 783.882812 933.667969 C 783.914062 934.828125 783.976562 935.984375 784.070312 937.136719 C 784.160156 938.289062 784.277344 939.441406 784.425781 940.589844 C 784.574219 941.738281 784.75 942.882812 784.957031 944.023438 C 785.160156 945.160156 785.394531 946.292969 785.652344 947.421875 C 785.914062 948.550781 786.203125 949.671875 786.519531 950.785156 C 786.839844 951.898438 787.183594 953.003906 787.554688 954.097656 C 787.925781 955.195312 788.324219 956.28125 788.75 957.359375 C 789.175781 958.433594 789.628906 959.5 790.105469 960.554688 C 790.585938 961.609375 791.089844 962.648438 791.621094 963.679688 C 792.152344 964.707031 792.707031 965.722656 793.289062 966.722656 C 793.871094 967.726562 794.476562 968.710938 795.105469 969.683594 C 795.734375 970.652344 796.386719 971.609375 797.066406 972.546875 C 797.742188 973.484375 798.445312 974.40625 799.167969 975.3125 C 799.890625 976.214844 800.636719 977.101562 801.402344 977.96875 C 802.171875 978.832031 802.960938 979.679688 803.769531 980.507812 C 804.578125 981.335938 805.40625 982.144531 806.257812 982.929688 C 807.105469 983.714844 807.976562 984.480469 808.863281 985.222656 C 809.75 985.96875 810.65625 986.6875 811.578125 987.386719 C 812.503906 988.085938 813.441406 988.757812 814.398438 989.410156 C 815.355469 990.0625 816.328125 990.6875 817.316406 991.292969 C 818.304688 991.894531 819.308594 992.472656 820.324219 993.027344 C 821.34375 993.582031 822.371094 994.109375 823.414062 994.609375 C 824.457031 995.113281 825.511719 995.585938 826.582031 996.035156 C 827.648438 996.488281 828.722656 996.910156 829.8125 997.304688 C 830.898438 997.703125 831.996094 998.070312 833.101562 998.410156 C 834.210938 998.753906 835.324219 999.066406 836.445312 999.351562 C 837.566406 999.640625 838.695312 999.898438 839.828125 1000.128906 C 840.964844 1000.355469 842.101562 1000.558594 843.246094 1000.730469 C 844.390625 1000.90625 845.539062 1001.050781 846.691406 1001.167969 C 847.84375 1001.28125 849 1001.371094 850.15625 1001.429688 C 851.3125 1001.488281 852.46875 1001.519531 853.625 1001.519531 C 854.78125 1001.519531 855.941406 1001.492188 857.097656 1001.4375 C 858.253906 1001.382812 859.40625 1001.296875 860.558594 1001.183594 C 861.710938 1001.070312 862.859375 1000.925781 864.003906 1000.757812 C 865.148438 1000.585938 866.289062 1000.386719 867.425781 1000.160156 C 868.558594 999.933594 869.6875 999.675781 870.8125 999.394531 C 871.933594 999.109375 873.046875 998.800781 874.15625 998.460938 C 875.261719 998.121094 876.359375 997.753906 877.449219 997.363281 C 878.535156 996.96875 879.617188 996.546875 880.683594 996.101562 C 881.75 995.652344 882.808594 995.179688 883.851562 994.679688 C 884.894531 994.183594 885.925781 993.65625 886.945312 993.105469 C 887.964844 992.554688 888.96875 991.980469 889.957031 991.378906 Z M 889.957031 991.378906 " fill-opacity="1" fill-rule="evenodd"/></svg>