<svg xmlns="http://www.w3.org/2000/svg" xmlns:xlink="http://www.w3.org/1999/xlink" width="2000" zoomAndPan="magnify" viewBox="0 0 1500 1499.999933" height="2000" preserveAspectRatio="xMidYMid meet" version="1.0"><rect x="-150" width="1800" fill="#ffffff" y="-149.999993" height="1799.99992" fill-opacity="1"/><rect x="-150" width="1800" fill="#545454" y="-149.999993" height="1799.99992" fill-opacity="1"/><path fill="#ffffff" d="M 1267.789062 38.402344 C 1066.386719 82.613281 590.800781 188.449219 571.597656 192.914062 C 547.039062 198.71875 494.34375 203.632812 494.34375 270.617188 L 494.34375 1161.058594 C 438.96875 1129.800781 354.570312 1125.78125 270.167969 1156.148438 C 145.132812 1201.25 67.875 1304.40625 97.796875 1387.019531 C 127.714844 1469.632812 253.199219 1500 377.789062 1454.898438 C 493.894531 1412.921875 568.917969 1320.929688 555.074219 1241.886719 L 555.074219 568.472656 C 555.074219 531.40625 554.183594 483.625 650.640625 463.085938 C 694.847656 453.707031 1296.367188 319.738281 1296.367188 319.738281 L 1296.367188 942.246094 C 1240.992188 910.09375 1155.699219 905.625 1070.40625 936.4375 C 945.371094 981.542969 868.113281 1084.699219 898.035156 1167.3125 C 927.953125 1249.925781 1053.4375 1280.292969 1178.027344 1235.1875 C 1293.242188 1193.660156 1367.371094 1103.007812 1355.761719 1024.410156 L 1357.097656 1024.410156 L 1357.097656 167.460938 C 1357.097656 61.179688 1432.121094 58.5 1432.121094 58.5 L 1432.121094 0 L 1267.789062 38.40625 Z M 1267.789062 38.402344 " fill-opacity="1" fill-rule="nonzero"/></svg>