<svg xmlns="http://www.w3.org/2000/svg" xmlns:xlink="http://www.w3.org/1999/xlink" width="2000" zoomAndPan="magnify" viewBox="0 0 1500 1499.999933" height="2000" preserveAspectRatio="xMidYMid meet" version="1.0"><defs><clipPath id="4bd9751ad5"><path d="M 2 2 L 1498 2 L 1498 1498 L 2 1498 Z M 2 2 " clip-rule="nonzero"/></clipPath><clipPath id="3ad37417b4"><path d="M 263.160156 -12.152344 L 1512.191406 263.167969 L 1236.871094 1512.199219 L -12.160156 1236.878906 Z M 263.160156 -12.152344 " clip-rule="nonzero"/></clipPath><clipPath id="14e30c4cf2"><path d="M 263.160156 -12.152344 L 1512.140625 263.15625 L 1236.832031 1512.136719 L -12.148438 1236.828125 Z M 263.160156 -12.152344 " clip-rule="nonzero"/></clipPath><clipPath id="a0ba0e15e5"><path d="M 336.402344 3.992188 L 1438.898438 247.011719 C 1479.347656 255.929688 1504.910156 295.949219 1495.996094 336.398438 L 1252.972656 1438.894531 C 1244.058594 1479.347656 1204.039062 1504.910156 1163.589844 1495.992188 L 61.09375 1252.972656 C 20.640625 1244.054688 -4.921875 1204.035156 3.996094 1163.585938 L 247.015625 61.089844 C 255.933594 20.640625 295.949219 -4.921875 336.402344 3.992188 Z M 336.402344 3.992188 " clip-rule="nonzero"/></clipPath><clipPath id="271532df8a"><path d="M 54 54 L 1446 54 L 1446 1446 L 54 1446 Z M 54 54 " clip-rule="nonzero"/></clipPath><clipPath id="99462051ec"><path d="M 296.859375 40.605469 L 1459.164062 296.808594 L 1202.960938 1459.113281 L 40.65625 1202.910156 Z M 296.859375 40.605469 " clip-rule="nonzero"/></clipPath><clipPath id="cee583a85d"><path d="M 296.859375 40.605469 L 1459.390625 296.859375 L 1203.136719 1459.390625 L 40.605469 1203.136719 Z M 296.859375 40.605469 " clip-rule="nonzero"/></clipPath><clipPath id="38fe3c784e"><path d="M 370.101562 56.75 L 1386.148438 280.714844 C 1405.574219 284.996094 1422.503906 296.820312 1433.210938 313.582031 C 1443.917969 330.347656 1447.527344 350.675781 1443.246094 370.101562 L 1219.28125 1386.148438 C 1215 1405.574219 1203.175781 1422.5 1186.414062 1433.210938 C 1169.652344 1443.917969 1149.320312 1447.527344 1129.894531 1443.246094 L 113.847656 1219.28125 C 94.421875 1215 77.496094 1203.175781 66.785156 1186.414062 C 56.078125 1169.648438 52.46875 1149.320312 56.75 1129.894531 L 280.714844 113.847656 C 284.996094 94.421875 296.820312 77.492188 313.582031 66.785156 C 330.347656 56.078125 350.675781 52.46875 370.101562 56.75 Z M 370.101562 56.75 " clip-rule="nonzero"/></clipPath><clipPath id="90e8696673"><rect x="0" width="1500" y="0" height="1500"/></clipPath><clipPath id="9b05d17c7f"><path d="M 108 108 L 1392 108 L 1392 1392 L 108 1392 Z M 108 108 " clip-rule="nonzero"/></clipPath><clipPath id="42f43fa836"><path d="M 329.835938 92.234375 L 1407.957031 329.878906 L 1170.308594 1408 L 92.191406 1170.351562 Z M 329.835938 92.234375 " clip-rule="nonzero"/></clipPath><clipPath id="44fd73cc5e"><path d="M 329.835938 92.234375 L 1407.761719 329.835938 L 1170.15625 1407.761719 L 92.234375 1170.15625 Z M 329.835938 92.234375 " clip-rule="nonzero"/></clipPath><clipPath id="551f454dd9"><path d="M 411.136719 110.152344 L 1326.464844 311.917969 C 1371.363281 321.816406 1399.738281 366.234375 1389.839844 411.136719 L 1188.078125 1326.464844 C 1178.179688 1371.363281 1133.757812 1399.738281 1088.859375 1389.839844 L 173.53125 1188.078125 C 128.632812 1178.179688 100.257812 1133.757812 110.152344 1088.859375 L 311.917969 173.53125 C 321.816406 128.632812 366.234375 100.257812 411.136719 110.152344 Z M 411.136719 110.152344 " clip-rule="nonzero"/></clipPath></defs><g transform="matrix(1, 0, 0, 1, 0, 0.000000000000112861)"><g clip-path="url(#90e8696673)"><g clip-path="url(#4bd9751ad5)"><g clip-path="url(#3ad37417b4)"><g clip-path="url(#14e30c4cf2)"><g clip-path="url(#a0ba0e15e5)"><path stroke-linecap="butt" transform="matrix(0.810532, 0.178663, -0.178663, 0.810532, 263.159953, -12.151411)" fill="none" stroke-linejoin="miter" d="M 90.363076 -0.00120027 L 1450.575601 -0.00197134 C 1500.480606 0.000215389 1540.936321 40.457065 1540.93873 90.361056 L 1540.934905 1450.574595 C 1540.938328 1500.483183 1500.481478 1540.938898 1450.576474 1540.936711 L 90.363948 1540.937482 C 40.454348 1540.936309 -0.00136779 1500.479459 0.000818938 1450.574455 L 0.0000478675 90.361929 C 0.00223459 40.456924 40.454488 0.00222215 90.363076 -0.00120027 Z M 90.363076 -0.00120027 " stroke="#ffffff" stroke-width="180.72513" stroke-opacity="1" stroke-miterlimit="4"/></g></g></g></g><g clip-path="url(#271532df8a)"><g clip-path="url(#99462051ec)"><g clip-path="url(#cee583a85d)"><g clip-path="url(#38fe3c784e)"><path stroke-linecap="butt" transform="matrix(0.810532, 0.178663, -0.178663, 0.810532, 296.859617, 40.605682)" fill="none" stroke-linejoin="miter" d="M 90.36273 -0.000238632 L 1343.918062 0.000258957 C 1367.884574 -0.000590052 1390.870495 9.520902 1407.81546 26.465663 C 1424.761438 43.415019 1434.280334 66.396767 1434.281183 90.363279 L 1434.280685 1343.918611 C 1434.281534 1367.885123 1424.760042 1390.871044 1407.815282 1407.816009 C 1390.870521 1424.760974 1367.884177 1434.280883 1343.917665 1434.281732 L 90.362333 1434.281234 C 66.395822 1434.282083 43.414496 1424.759578 26.464935 1407.815831 C 9.518958 1390.866474 0.0000613697 1367.884726 -0.000787638 1343.918214 L -0.00029005 90.362882 C -0.00113906 66.396371 9.520353 43.410449 26.465114 26.465484 C 43.41447 9.519507 66.396218 0.000610376 90.36273 -0.000238632 Z M 90.36273 -0.000238632 " stroke="#ffffff" stroke-width="180.72513" stroke-opacity="1" stroke-miterlimit="4"/></g></g></g></g></g></g><g clip-path="url(#9b05d17c7f)"><g clip-path="url(#42f43fa836)"><g clip-path="url(#44fd73cc5e)"><g clip-path="url(#551f454dd9)"><path stroke-linecap="butt" transform="matrix(0.732418, 0.161445, -0.161445, 0.732418, 329.837818, 92.233894)" fill="none" stroke-linejoin="miter" d="M 111.000163 -0.00266129 L 1360.736162 0.000416242 C 1422.038313 0.00249747 1471.733249 49.694068 1471.732289 111.001305 L 1471.734298 1360.736183 C 1471.732217 1422.038334 1422.03556 1471.734391 1360.733409 1471.73231 L 110.998531 1471.734319 C 49.69638 1471.732238 0.000322685 1422.035581 -0.00268232 1360.734551 L 0.000395212 110.998552 C 0.00247644 49.696401 49.694047 0.00146486 111.000163 -0.00266129 Z M 111.000163 -0.00266129 " stroke="#ffffff" stroke-width="136" stroke-opacity="1" stroke-miterlimit="4"/></g></g></g></g></svg>